<svg width="30" height="30" viewBox="0 0 30 30" fill="none" xmlns="http://www.w3.org/2000/svg">
<path d="M29.8643 14.7602L28.0962 13.6993C27.2213 13.1744 26.9897 12.0095 27.5971 11.1896L28.8245 9.53306C28.9501 9.36361 28.8498 9.12108 28.6411 9.09018L26.6015 8.7866C25.5922 8.63638 24.9326 7.64885 25.18 6.65934L25.6802 4.65875C25.7312 4.45409 25.5458 4.26857 25.3411 4.31994L23.3405 4.81991C22.3507 5.06728 21.3634 4.40771 21.2133 3.39868L20.9096 1.35876C20.8787 1.15005 20.6365 1.04974 20.4668 1.1753L18.8099 2.40301C17.99 3.01048 16.8254 2.77851 16.3005 1.90363L15.2397 0.135668C15.131 -0.0452228 14.8688 -0.0452228 14.7604 0.135668L13.6995 1.90378C13.1747 2.77866 12.01 3.01055 11.1901 2.40316L9.53329 1.17544C9.36355 1.04988 9.12131 1.1502 9.09041 1.3589L8.78682 3.39875C8.63661 4.40778 7.64937 5.06736 6.65957 4.81998L4.65898 4.32001C4.45431 4.26872 4.2688 4.45416 4.31987 4.65883L4.82013 6.65942C5.06751 7.64922 4.40793 8.63653 3.39861 8.78667L1.35905 9.09026C1.15035 9.12123 1.04974 9.36369 1.17559 9.53313L2.40301 11.1897C3.01048 12.0095 2.77881 13.1745 1.90393 13.6994L0.135889 14.7602C-0.0452962 14.8689 -0.0452962 15.1311 0.135889 15.2397L1.904 16.3007C2.77888 16.8255 3.01048 17.9902 2.40308 18.81L1.17559 20.4666C1.04974 20.6363 1.15035 20.8786 1.35905 20.9098L3.39861 21.2133C4.40793 21.3633 5.06751 22.3508 4.82013 23.3406L4.3198 25.3412C4.2688 25.5459 4.45424 25.7314 4.65891 25.68L6.6592 25.1797C7.64901 24.9324 8.63661 25.5922 8.78675 26.6013L9.09034 28.6408C9.12131 28.8498 9.36347 28.9501 9.53321 28.8243L11.1901 27.5969C12.0096 26.9894 13.1743 27.2211 13.6991 28.0959L14.7603 29.8643C14.869 30.0452 15.1309 30.0452 15.2396 29.8643L16.3005 28.0959C16.8257 27.2211 17.9903 26.9895 18.8099 27.5969L20.4668 28.8243C20.6365 28.9501 20.8787 28.8498 20.9096 28.6408L21.2132 26.6013C21.3634 25.5922 22.351 24.9324 23.3405 25.1797L25.3411 25.68C25.5457 25.7313 25.7312 25.5459 25.6802 25.3412L25.1799 23.3406C24.9325 22.3508 25.5921 21.3632 26.6014 21.2133L28.641 20.9098C28.8497 20.8785 28.95 20.6363 28.8244 20.4666L27.5967 18.81C26.9897 17.9902 27.2213 16.8256 28.0959 16.3007L29.8643 15.2397C30.0452 15.1311 30.0452 14.8689 29.8643 14.7602ZM24.2186 16.8385C23.5178 20.5358 20.5362 23.5176 16.8389 24.2184C10.2215 25.4731 4.52703 19.779 5.78146 13.1615C6.48206 9.46422 9.46386 6.48242 13.1611 5.7816C19.7786 4.52696 25.473 10.2207 24.2186 16.8385Z" fill="#232323"/>
<circle cx="14.9998" cy="15" r="6" fill="#232323"/>
</svg>
