<svg width="22" height="16" viewBox="0 0 22 16" fill="none" xmlns="http://www.w3.org/2000/svg"><g id="us 2"><g clip-path="url(#clip0_2152_4207)"><g id="Server-Location-Full-List"><g id="banners"><g id="US"><path id="background" d="M21.33 1.06667H0V14.9333H21.33V1.06667Z" fill="white"/><g id="rectangle"><path id="Vector" d="M9.14143 1.06667H0V7.46667H9.14143V1.06667Z" fill="#0E5396"/><path id="Vector_2" d="M8.63359 1.6H0.507874V6.93333H8.63359V1.6Z" stroke="#0B4278"/></g><path id="rectangle-copy" d="M8.12569 1.06667H1.01569V6.4H8.12569V1.06667Z" fill="#0E5396"/><path id="stars" fill-rule="evenodd" clip-rule="evenodd" d="M1.01569 1.06667V2.13333H2.0314V1.06667H1.01569Z" fill="#A7B6E6"/><path id="Path" fill-rule="evenodd" clip-rule="evenodd" d="M3.04712 1.06667V2.13333H4.06283V1.06667H3.04712Z" fill="#A7B6E6"/><path id="Path_2" fill-rule="evenodd" clip-rule="evenodd" d="M5.07855 1.06667V2.13333H6.09427V1.06667H5.07855Z" fill="#A7B6E6"/><path id="Path_3" fill-rule="evenodd" clip-rule="evenodd" d="M7.10999 1.06667V2.13333H8.1257V1.06667H7.10999Z" fill="#A7B6E6"/><path id="Path_4" fill-rule="evenodd" clip-rule="evenodd" d="M6.0943 2.13333V3.2H7.11001V2.13333H6.0943Z" fill="#A7B6E6"/><path id="Path_5" fill-rule="evenodd" clip-rule="evenodd" d="M4.06287 2.13333V3.2H5.07858V2.13333H4.06287Z" fill="#A7B6E6"/><path id="Path_6" fill-rule="evenodd" clip-rule="evenodd" d="M2.03143 2.13333V3.2H3.04715V2.13333H2.03143Z" fill="#A7B6E6"/><path id="Path_7" fill-rule="evenodd" clip-rule="evenodd" d="M1.01569 3.2V4.26666H2.0314V3.2H1.01569Z" fill="#A7B6E6"/><path id="Path_8" fill-rule="evenodd" clip-rule="evenodd" d="M3.04712 3.2V4.26666H4.06283V3.2H3.04712Z" fill="#A7B6E6"/><path id="Path_9" fill-rule="evenodd" clip-rule="evenodd" d="M5.07855 3.2V4.26666H6.09427V3.2H5.07855Z" fill="#A7B6E6"/><path id="Path_10" fill-rule="evenodd" clip-rule="evenodd" d="M7.10999 3.2V4.26666H8.1257V3.2H7.10999Z" fill="#A7B6E6"/><path id="Path_11" fill-rule="evenodd" clip-rule="evenodd" d="M1.01569 5.33333V6.39999H2.0314V5.33333H1.01569Z" fill="#A7B6E6"/><path id="Path_12" fill-rule="evenodd" clip-rule="evenodd" d="M3.04712 5.33333V6.39999H4.06283V5.33333H3.04712Z" fill="#A7B6E6"/><path id="Path_13" fill-rule="evenodd" clip-rule="evenodd" d="M5.07855 5.33333V6.39999H6.09427V5.33333H5.07855Z" fill="#A7B6E6"/><path id="Path_14" fill-rule="evenodd" clip-rule="evenodd" d="M7.10999 5.33333V6.39999H8.1257V5.33333H7.10999Z" fill="#A7B6E6"/><path id="Path_15" fill-rule="evenodd" clip-rule="evenodd" d="M6.0943 4.26666V5.33333H7.11001V4.26666H6.0943Z" fill="#A7B6E6"/><path id="Path_16" fill-rule="evenodd" clip-rule="evenodd" d="M4.06287 4.26666V5.33333H5.07858V4.26666H4.06287Z" fill="#A7B6E6"/><path id="Path_17" fill-rule="evenodd" clip-rule="evenodd" d="M2.03143 4.26666V5.33333H3.04715V4.26666H2.03143Z" fill="#A7B6E6"/><path id="stripe" fill-rule="evenodd" clip-rule="evenodd" d="M9.14142 2.13333V3.2H21.33V2.13333H9.14142Z" fill="#F65260"/><path id="Path_18" fill-rule="evenodd" clip-rule="evenodd" d="M9.14142 4.26666V5.33333H21.33V4.26666H9.14142Z" fill="#F65260"/><path id="Path_19" fill-rule="evenodd" clip-rule="evenodd" d="M9.14142 6.39999V7.46666H21.33V6.39999H9.14142Z" fill="#F65260"/><path id="Path_20" fill-rule="evenodd" clip-rule="evenodd" d="M0 8.53334V9.60001H21.33V8.53334H0Z" fill="#F65260"/><path id="Path_21" fill-rule="evenodd" clip-rule="evenodd" d="M0 10.6667V11.7333H21.33V10.6667H0Z" fill="#F65260"/><path id="Path_22" fill-rule="evenodd" clip-rule="evenodd" d="M0 12.8V13.8667H21.33V12.8H0Z" fill="#F65260"/><path id="Path_23" fill-rule="evenodd" clip-rule="evenodd" d="M0 15.4667C0 15.7612 0.225114 16 0.506223 16H20.8238C21.1034 16 21.33 15.7526 21.33 15.4667V14.9333H0V15.4667Z" fill="#F65260"/><path id="Path_24" fill-rule="evenodd" clip-rule="evenodd" d="M9.14142 1.06667H21.33V0.533333C21.33 0.238781 21.0974 0 20.8218 0H9.14142V1.06667Z" fill="#F65260"/><path id="Path-Copy" fill-rule="evenodd" clip-rule="evenodd" d="M9.14142 1.06667H-9.53674e-06V0.533333C-9.53674e-06 0.238781 0.22596 0 0.517666 0H9.14142V1.06667Z" fill="#0B4278"/><path id="Vector_3" d="M19.0446 0.26667H2.28533C1.16341 0.26667 0.253906 1.2218 0.253906 2.4V13.6C0.253906 14.7782 1.16341 15.7333 2.28533 15.7333H19.0446C20.1665 15.7333 21.076 14.7782 21.076 13.6V2.4C21.076 1.2218 20.1665 0.26667 19.0446 0.26667Z" stroke="black" stroke-opacity="0.05" stroke-width="0.5"/></g></g></g></g></g><defs><clipPath id="clip0_2152_4207"><rect width="21.33" height="16" rx="2" fill="white"/></clipPath></defs></svg>